<svg xmlns="http://www.w3.org/2000/svg" width="100" height="100" viewBox="0 0 432 432" stroke-linejoin="round"><style>.a{fill:#6366f1;}</style><path d="M28.1 147.6c-8 21.9-12.1 45.1-12.1 68.4 0 110.4 89.6 200 200 200 110.4 0 200-89.6 200-200 0-110.4-89.6-200-200-200 -35.1 0-69.6 9.2-100 26.8l25 43.3c22.8-13.2 48.7-20.1 75-20.1 82.8 0 150 67.2 150 150 0 82.8-67.2 150-150 150 -82.8 0-150-67.2-150-150 0-17.5 3.1-34.9 9-51.3l-47-17.1Z" class="a"/><path d="M139.1 82l20 34.7 -84.1-22.5 22.5-84.1 20 34.7 3.9-2.2 21.6 37.3 -3.9 2.2Z" class="a"/><text x="171" y="332" style="fill:#6366f1;font-family:'SegoeUI-Bold', 'Segoe UI', sans-serif;font-size:300px;font-weight:700">  i</text></svg>